<?xml version="1.0" encoding="utf-8"?>
<!-- Generator: Adobe Illustrator 24.0.0, SVG Export Plug-In . SVG Version: 6.00 Build 0)  -->
<svg version="1.1" id="Capa_1" xmlns="http://www.w3.org/2000/svg" xmlns:xlink="http://www.w3.org/1999/xlink" x="0px" y="0px"
	 viewBox="0 0 512 512" style="enable-background:new 0 0 512 512;" xml:space="preserve">
<style type="text/css">
	.st0{fill:#FFD527;}
</style>
<g>
	<g>
		<path class="st0" d="M407,0H105C47.1,0,0,47.1,0,105v302c0,57.9,47.1,105,105,105h302c57.9,0,105-47.1,105-105V105
			C512,47.1,464.9,0,407,0z M30,105c0-41.4,33.6-75,75-75h125.5l-48.2,148.3H30V105z M84.5,479.1C53.1,470.2,30,441.3,30,407V241
			l106.7,77.5L84.5,479.1z M150.3,482L256,405.2L361.7,482H150.3z M256,368.1l-135.9,98.8L172,307.1L36.1,208.3h168L256,48.5
			l51.9,159.8h168L340,307.1l51.9,159.8L256,368.1z M482,407c0,34.3-23.1,63.2-54.5,72.1l-52.2-160.6L482,241V407z M482,178.3H329.7
			L281.5,30H407c41.4,0,75,33.6,75,75V178.3z"/>
	</g>
</g>
<g>
	<g>
		<polygon class="st0" points="216,246 216,306 286,306 286,276 286,246 		"/>
	</g>
</g>
<g>
	<g>
		<polygon class="st0" points="306,256 286,276 306,296 316,296 316,256 		"/>
	</g>
</g>
</svg>
